HIERARCHY
ROOT Hips
{
	OFFSET 0.000000 0.000000 0.000000 
	CHANNELS 6 Xposition Yposition Zposition Yrotation Zrotation Xrotation 
	JOINT Lumbar
	{
		OFFSET 0.000000 0.000000 0.000000 
		CHANNELS 3 Zrotation Xrotation Yrotation
		JOINT Neck
		{
			OFFSET 0.000000 0.445665 0.000000 
			CHANNELS 3 Zrotation Xrotation Yrotation
			End Site
			{
				OFFSET 0.000000 0.227535 0.000000 
			}
		}
		JOINT RightShoulder
		{
			OFFSET 0.019635 0.377685 0.194865 
			CHANNELS 3 Zrotation Xrotation Yrotation
			JOINT RightElbow
			{
				OFFSET 0.000000 -0.243375 0.000000 
				CHANNELS 2 Zrotation Yrotation
				JOINT RightWrist
				{
					OFFSET 0.000000 -0.264825 0.000000 
					CHANNELS 2 Zrotation Xrotation
					End Site
					{
						OFFSET 0.006600 -0.176220 0.000990 
					}
				}
			}
		}
		JOINT LeftShoulder
		{
			OFFSET 0.019635 0.377685 -0.194865 
			CHANNELS 3 Zrotation Xrotation Yrotation
			JOINT LeftElbow
			{
				OFFSET 0.000000 -0.243375 0.000000 
				CHANNELS 2 Zrotation Yrotation
				JOINT LeftWrist
				{
					OFFSET 0.000000 -0.264825 0.000000 
					CHANNELS 2 Zrotation Xrotation
					End Site
					{
						OFFSET 0.006600 -0.176220 -0.000990 
					}
				}
			}
		}
	}
	JOINT RightHip
	{
		OFFSET 0.052140 -0.069960 0.075570 
		CHANNELS 3 Zrotation Xrotation Yrotation
		JOINT RightKnee
		{
			OFFSET 0.000000 -0.402270 0.000000 
			CHANNELS 1 Zrotation
			JOINT RightAnkle
			{
				OFFSET 0.000000 -0.404085 0.000000 
				CHANNELS 3 Zrotation Xrotation Yrotation
				End Site
				{
					OFFSET 0.204105 -0.089430 0.008415 
				}
			}
		}
	}
	JOINT LeftHip
	{
		OFFSET 0.052140 -0.069960 -0.075570 
		CHANNELS 3 Zrotation Xrotation Yrotation
		JOINT LeftKnee
		{
			OFFSET 0.000000 -0.402270 0.000000 
			CHANNELS 1 Zrotation
			JOINT LeftAnkle
			{
				OFFSET 0.000000 -0.404085 0.000000 
				CHANNELS 3 Zrotation Xrotation Yrotation
				End Site
				{
					OFFSET 0.204105 -0.089430 -0.008415 
				}
			}
		}
	}
}
MOTION
Frames: 33
Frame Time: 0.02
0.59102 -0.39157 0.02705 -181.54135 -9.55603 -2.75018 12.15034 5.4819 -4.11439 -8.8389 -3.67263 -0.8285 24.54314 -29.1767 37.33012 85.69366 80.91987 8.02477 -4.21935 39.75067 23.36037 -38.77654 83.93244 -82.04334 2.97024 2.70517 96.50028 -13.2424 -3.94935 -96.18678 -8.01898 -3.38275 -2.48001 98.94984 12.3559 -1.33475 -95.55496 -9.28003 2.11925 1.82613
0.591 -0.39161 0.02694 -181.54367 -9.5469 -2.73452 12.07775 5.46068 -4.18087 -9.00029 -3.62521 -0.82851 24.57076 -29.21985 37.42721 85.67313 80.86321 7.86744 -4.25579 38.96379 23.48259 -39.00906 83.42989 -82.06346 2.92068 2.6891 96.50271 -13.17759 -3.88166 -96.20442 -8.01826 -3.38609 -2.48151 98.93474 12.33479 -1.34977 -95.56427 -9.27271 2.12414 1.8282
0.59098 -0.39163 0.0268 -181.53742 -9.51892 -2.71656 11.98634 5.44055 -4.22915 -9.12253 -3.58595 -0.82851 24.6087 -29.27761 37.50837 85.63261 80.79782 7.69472 -4.27987 38.45436 23.70853 -39.3625 82.91018 -82.07429 2.82685 2.67381 96.48465 -13.06608 -3.76586 -96.22189 -8.02112 -3.39551 -2.4859 98.89575 12.31543 -1.35789 -95.57065 -9.26613 2.12883 1.83
0.59096 -0.39166 0.02668 -181.53512 -9.50142 -2.69976 11.90562 5.42072 -4.28559 -9.25757 -3.54593 -0.82852 24.6479 -29.32679 37.59974 85.59783 80.73619 7.5312 -4.31405 37.8412 23.8856 -39.66123 82.39252 -82.08916 2.75613 2.66037 96.47774 -12.97701 -3.67289 -96.23898 -8.02233 -3.40204 -2.48896 98.86969 12.29586 -1.36821 -95.57821 -9.2593 2.13355 1.83191
0.59095 -0.3917 0.02654 -181.53273 -9.47683 -2.68236 11.81641 5.39749 -4.34172 -9.41255 -3.49313 -0.82852 24.66071 -29.3858 37.67814 85.5789 80.67489 7.35671 -4.33081 37.13508 24.07536 -39.9617 81.90482 -82.10475 2.67046 2.63886 96.46412 -12.88356 -3.57658 -96.25792 -8.02358 -3.40901 -2.49207 98.83588 12.27315 -1.38307 -95.58632 -9.25214 2.13859 1.83391
0.59092 -0.39172 0.02644 -181.52851 -9.46223 -2.66573 11.7403 5.38159 -4.39447 -9.51682 -3.46922 -0.82853 24.7318 -29.42667 37.78024 85.52124 80.61127 7.20226 -4.37964 36.69017 24.26046 -40.28509 81.34791 -82.11669 2.606 2.63384 96.45926 -12.78815 -3.47587 -96.27294 -8.02562 -3.41652 -2.49576 98.81223 12.25764 -1.38671 -95.59258 -9.24583 2.14289 1.83563
0.59088 -0.3917 0.02642 -181.52058 -9.47878 -2.65164 11.70373 5.38595 -4.44245 -9.4944 -3.52051 -0.82853 24.95686 -29.4198 37.94775 85.36513 80.5407 7.10461 -4.52868 36.87163 24.41656 -40.6557 80.60994 -82.12024 2.61498 2.67474 96.48269 -12.69517 -3.37045 -96.27771 -8.02899 -3.42423 -2.50053 98.82134 12.26192 -1.35958 -95.59492 -9.24155 2.14514 1.83664
0.59083 -0.39168 0.02643 -181.51123 -9.50601 -2.63845 11.68113 5.39762 -4.48774 -9.42184 -3.60114 -0.82854 25.2412 -29.39273 38.14033 85.16972 80.46865 7.02835 -4.70873 37.31113 24.56169 -41.04229 79.80058 -82.12052 2.64656 2.73195 96.51557 -12.60236 -3.26293 -96.27846 -8.03304 -3.43224 -2.50576 98.8415 12.27347 -1.32152 -95.59545 -9.23811 2.14663 1.83736
0.59079 -0.39165 0.02642 -181.503 -9.52896 -2.62495 11.65282 5.40575 -4.53428 -9.36992 -3.66997 -0.82854 25.50142 -29.37108 38.32416 84.98997 80.39909 6.94397 -4.8688 37.64936 24.70559 -41.41272 79.01997 -82.1227 2.66539 2.78112 96.54462 -12.51165 -3.15903 -96.28067 -8.03677 -3.44 -2.51069 98.85726 12.28152 -1.28931 -95.5965 -9.23438 2.14848 1.83821
0.59074 -0.39163 0.02642 -181.49248 -9.5491 -2.61092 11.62112 5.41477 -4.58003 -9.32549 -3.73239 -0.82854 25.74998 -29.36658 38.49663 84.81947 80.32156 6.85207 -5.05325 37.92877 24.88086 -41.82574 78.25654 -82.12291 2.69264 2.83291 96.5713 -12.41006 -3.04213 -96.28435 -8.04067 -3.44846 -2.51614 98.86982 12.2903 -1.25324 -95.59867 -9.2303 2.15032 1.83905
0.5907 -0.39161 0.02642 -181.48648 -9.57756 -2.5983 11.60008 5.42373 -4.62706 -9.25428 -3.81532 -0.82855 26.03686 -29.32045 38.69846 84.61985 80.2604 6.78136 -5.19452 38.38964 24.98502 -42.15129 77.43797 -82.12643 2.70887 2.88319 96.60506 -12.33185 -2.95253 -96.28407 -8.04433 -3.45545 -2.52056 98.89168 12.29943 -1.2226 -95.59821 -9.22711 2.15196 1.83984
0.59068 -0.39158 0.02644 -181.49361 -9.62905 -2.58893 11.60492 5.43022 -4.67828 -9.11967 -3.94513 -0.82855 26.41434 -29.17165 38.97909 84.35588 80.24477 6.76231 -5.20812 39.2757 24.90992 -42.23879 76.5066 -82.14098 2.6851 2.92454 96.65939 -12.31776 -2.93818 -96.27334 -8.04718 -3.45837 -2.52212 98.93914 12.30619 -1.21052 -95.59013 -9.22628 2.15339 1.84061
0.59066 -0.39154 0.02646 -181.50532 -9.68813 -2.58104 11.62013 5.43647 -4.73101 -8.96031 -4.09503 -0.82856 26.82835 -28.98008 39.28761 84.06281 80.24572 6.76444 -5.17742 40.33614 24.76032 -42.23553 75.51818 -82.15882 2.65061 2.96393 96.72003 -12.32748 -2.95171 -96.25885 -8.04972 -3.45976 -2.52261 98.99521 12.31327 -1.2042 -95.57965 -9.22628 2.15462 1.84132
0.59064 -0.3915 0.02648 -181.51481 -9.74205 -2.57277 11.63076 5.44314 -4.78311 -8.8137 -4.23736 -0.82857 27.22615 -28.80334 39.5811 83.77898 80.23914 6.75779 -5.1676 41.32409 24.63491 -42.26855 74.54151 -82.17447 2.62375 3.00477 96.77569 -12.32678 -2.95316 -96.2464 -8.05236 -3.46179 -2.52353 99.04571 12.32128 -1.19463 -95.57084 -9.22581 2.15583 1.84199
0.59063 -0.39146 0.0265 -181.52487 -9.80356 -2.56331 11.64128 5.44878 -4.8347 -8.6592 -4.37404 -0.82857 27.62469 -28.64582 39.886 83.51076 80.23248 6.7475 -5.15566 42.29397 24.5503 -42.32388 73.62215 -82.19286 2.58543 3.04391 96.84053 -12.3244 -2.95209 -96.23242 -8.05524 -3.46406 -2.52473 99.10356 12.32525 -1.18718 -95.55953 -9.22575 2.15746 1.84293
0.5906 -0.39142 0.02652 -181.5348 -9.85094 -2.55667 11.65433 5.45641 -4.88796 -8.51562 -4.52699 -0.82858 28.02919 -28.43776 40.17267 83.20339 80.22996 6.75053 -5.13725 43.33791 24.36278 -42.31012 72.57084 -82.20646 2.56889 3.08579 96.88773 -12.33114 -2.96282 -96.22078 -8.05752 -3.46546 -2.52506 99.14805 12.3373 -1.17705 -95.55285 -9.22504 2.15819 1.84332
0.5905 -0.39138 0.02654 -181.54373 -9.85721 -2.55738 11.67183 5.46953 -4.94375 -8.41114 -4.71889 -0.82859 28.44417 -28.10596 40.40885 82.79727 80.23453 6.77697 -5.11135 44.55542 23.91231 -42.13508 71.16887 -82.20544 2.60885 3.1367 96.88381 -12.35768 -3.00042 -96.21636 -8.0583 -3.46493 -2.52323 99.15293 12.37438 -1.15621 -95.55965 -9.22225 2.15639 1.84211
0.59039 -0.39133 0.02657 -181.5523 -9.84899 -2.56089 11.69144 5.48465 -5.00146 -8.31828 -4.92647 -0.82859 28.86293 -27.72395 40.62437 82.35249 80.24274 6.81764 -5.08042 45.8377 23.3604 -41.89256 69.63636 -82.19968 2.67235 3.19022 96.86203 -12.39247 -3.04875 -96.21443 -8.05847 -3.46355 -2.52054 99.14411 12.41906 -1.1329 -95.57115 -9.21879 2.1537 1.84037
0.59029 -0.39128 0.02659 -181.56072 -9.84754 -2.56316 11.71002 5.49886 -5.05946 -8.21836 -5.12746 -0.8286 29.27783 -27.36136 40.84486 81.92419 80.24945 6.85692 -5.05196 47.08161 22.85296 -41.67562 68.16434 -82.19642 2.72878 3.24177 96.84898 -12.42323 -3.09142 -96.21151 -8.05888 -3.46247 -2.51823 99.14193 12.45839 -1.11204 -95.58043 -9.21569 2.15149 1.83892
0.59016 -0.39123 0.02661 -181.57057 -9.84561 -2.56534 11.72929 5.51306 -5.11276 -8.12478 -5.32708 -0.82861 29.7035 -27.01119 41.08498 81.49962 80.25607 6.87502 -5.02119 48.37046 22.34958 -41.47554 66.6859 -82.19158 2.76871 3.29638 96.83362 -12.45612 -3.13832 -96.20796 -8.05945 -3.46169 -2.5159 99.13837 12.50565 -1.08579 -95.59007 -9.21239 2.14897 1.83726
0.59008 -0.39119 0.02664 -181.57735 -9.8411 -2.56839 11.74746 5.52775 -5.1761 -8.02139 -5.53282 -0.82862 30.10665 -26.62432 41.27897 81.05828 80.26354 6.94096 -4.9946 49.57754 21.81488 -41.22735 65.18991 -82.18918 2.84978 3.34548 96.81866 -12.4861 -3.17864 -96.20624 -8.05955 -3.46012 -2.51343 99.13426 12.53828 -1.07009 -95.60002 -9.20935 2.14688 1.83591
0.59011 -0.39123 0.0267 -181.57528 -9.83307 -2.57277 11.76223 5.54345 -5.26838 -7.88575 -5.75319 -0.82863 30.45044 -26.14439 41.3502 80.58226 80.27227 7.12966 -4.9811 50.55134 21.21704 -40.84721 63.68442 -82.19196 3.02926 3.3766 96.80969 -12.50693 -3.19764 -96.21005 -8.05845 -3.45655 -2.51075 99.13224 12.52786 -1.08407 -95.61048 -9.20711 2.14615 1.83551
0.59017 -0.39129 0.02676 -181.57017 -9.82277 -2.578 11.77563 5.55955 -5.37042 -7.74043 -5.97878 -0.82864 30.77045 -25.6304 41.37571 80.09067 80.28165 7.36673 -4.97221 51.43748 20.59202 -40.42432 62.16536 -82.19786 3.25086 3.40233 96.80145 -12.52429 -3.20959 -96.21544 -8.05693 -3.45223 -2.50797 99.12992 12.50258 -1.10871 -95.62098 -9.20517 2.1459 1.83544
0.59021 -0.39134 0.02682 -181.56676 -9.81356 -2.58307 11.78964 5.57538 -5.46684 -7.60114 -6.20089 -0.82865 31.09878 -25.13464 41.42226 79.60468 80.29082 7.58575 -4.96116 52.35822 19.98052 -40.03177 60.64741 -82.20408 3.45977 3.43211 96.79267 -12.54248 -3.22495 -96.21939 -8.05566 -3.44828 -2.50527 99.12771 12.4846 -1.12851 -95.63096 -9.20316 2.14546 1.83524
0.59026 -0.39139 0.02689 -181.56212 -9.80409 -2.58725 11.80423 5.59162 -5.56814 -7.45517 -6.42832 -0.82866 31.43809 -24.6248 41.46682 79.12264 80.29992 7.78979 -4.94994 53.3062 19.3597 -39.59095 59.14373 -82.20273 3.6434 3.45582 96.78474 -12.56399 -3.23985 -96.2264 -8.0541 -3.44416 -2.5024 99.12568 12.46457 -1.1483 -95.64319 -9.20085 2.14487 1.83494
0.59031 -0.39144 0.02694 -181.55917 -9.79419 -2.59348 11.8167 5.60713 -5.66181 -7.32088 -6.64561 -0.82867 31.74841 -24.13773 41.50518 78.63031 80.3091 8.03493 -4.94055 54.17229 18.75416 -39.24114 57.61194 -82.21805 3.88794 3.4901 96.7747 -12.57783 -3.25388 -96.22745 -8.05304 -3.44023 -2.49987 99.12269 12.4452 -1.17055 -95.65074 -9.19923 2.14471 1.83493
0.59036 -0.39145 0.02693 -181.56288 -9.78926 -2.60494 11.82853 5.6199 -5.72978 -7.21951 -6.83424 -0.82867 31.98797 -23.71476 41.53527 78.10429 80.31976 8.39376 -4.93242 54.86222 18.18988 -39.15552 55.98111 -82.27795 4.3026 3.5616 96.76544 -12.56957 -3.2669 -96.21103 -8.05368 -3.43718 -2.49837 99.12349 12.43121 -1.19817 -95.64468 -9.1998 2.14554 1.83563
0.59041 -0.39146 0.0269 -181.5682 -9.78312 -2.61846 11.83747 5.63198 -5.79011 -7.13051 -7.01219 -0.82868 32.19845 -23.31755 41.56116 77.57061 80.33022 8.78993 -4.92644 55.46674 17.64411 -39.16262 54.32872 -82.35465 4.77466 3.64276 96.75305 -12.55387 -3.27916 -96.18868 -8.0548 -3.43434 -2.49721 99.12236 12.41838 -1.22771 -95.63401 -9.20101 2.1468 1.83663
0.59045 -0.39146 0.02688 -181.57188 -9.77375 -2.63119 11.84439 5.64481 -5.85543 -7.0369 -7.19467 -0.82868 32.42006 -22.91331 41.5907 77.04624 80.33975 9.16113 -4.92135 56.09178 17.095 -39.12635 52.70186 -82.42417 5.21237 3.71497 96.73752 -12.54288 -3.29207 -96.16943 -8.05554 -3.43132 -2.49585 99.11783 12.40504 -1.25559 -95.62585 -9.20171 2.14789 1.83749
0.5905 -0.39148 0.02685 -181.57909 -9.77974 -2.6434 11.86491 5.656 -5.9148 -6.93865 -7.37912 -0.82869 32.64993 -22.48771 41.61158 76.49557 80.35343 9.56799 -4.90878 56.79251 16.52236 -39.09476 51.004 -82.49201 5.68666 3.80585 96.74052 -12.52674 -3.30394 -96.14849 -8.05689 -3.4286 -2.49467 99.13076 12.39113 -1.28708 -95.61592 -9.20333 2.14886 1.83835
0.59053 -0.39148 0.02683 -181.5796 -9.75414 -2.65708 11.85699 5.67022 -5.98445 -6.85318 -7.55635 -0.8287 32.85566 -22.11368 41.64972 75.9995 80.35864 9.90856 -4.91195 57.31459 16.00487 -39.07475 49.45412 -82.56715 6.09756 3.86069 96.70509 -12.51888 -3.31729 -96.12967 -8.05715 -3.42536 -2.49324 99.10763 12.37883 -1.31149 -95.60859 -9.2032 2.15019 1.83929
0.59049 -0.39143 0.02683 -181.55937 -9.63581 -2.67516 11.76639 5.69479 -6.08575 -6.79957 -7.72038 -0.8287 33.00467 -21.87187 41.73993 75.6442 80.33864 10.05895 -4.96052 57.38065 15.62386 -39.07557 48.27573 -82.65956 6.32154 3.80961 96.55638 -12.54204 -3.34005 -96.1178 -8.05386 -3.42007 -2.49072 98.97877 12.37102 -1.3147 -95.60952 -9.19781 2.15243 1.84039
0.59042 -0.39137 0.02684 -181.53267 -9.48679 -2.69451 11.64815 5.72208 -6.19725 -6.75862 -7.87662 -0.82871 33.12996 -21.68212 41.84723 75.34647 80.3104 10.14071 -5.02439 57.26755 15.30002 -39.0832 47.2551 -82.75845 6.47905 3.72272 96.37054 -12.57275 -3.36351 -96.10833 -8.04953 -3.41433 -2.48799 98.8149 12.3648 -1.31088 -95.61321 -9.19069 2.15502 1.84157
